<!-- ===================================================== -->
<!-- SVG Generated by SLISVG_SVGLIB on 2026.07.08/14:20:46 -->
<!-- ===================================================== -->
<svg xmlns="http://www.w3.org/2000/svg"
xmlns:xlink="http://www.w3.org/1999/xlink"
width="600.00"
height="600.00"
viewBox=".00 .00 600.00 600.00" >

<text x="300.00" y="40.80" font-size="30.00" fill="#000000" text-anchor="middle">
  Contouring with diagonal border
</text>
<polygon stroke-width="2.00" stroke="#000000" fill="none" points="
  60.00, 540.00
  540.00, 540.00
  540.00, 60.00
  60.00, 60.00
"/>
<path stroke-width="1.00" stroke="#000000" fill="none" d="
  M
  372.00, 540.00
  L
  396.00, 508.00
  420.00, 476.00
  444.00, 444.00
  468.00, 412.00
  492.00, 380.00
  492.00, 348.00
  492.00, 316.00
  492.00, 284.00
  492.00, 252.00
  492.00, 220.00
  468.00, 188.00
  444.00, 156.00
  420.00, 124.00
  396.00, 92.00
  372.00, 92.00
  348.00, 92.00
  324.00, 92.00
  300.00, 92.00
  276.00, 92.00
  252.00, 124.00
  228.00, 156.00
  204.00, 188.00
  180.00, 220.00
  156.00, 252.00
  132.00, 284.00
  108.00, 316.00
  108.00, 348.00
  108.00, 380.00
  108.00, 412.00
  132.00, 444.00
  156.00, 476.00
  180.00, 508.00
  204.00, 540.00
  228.00, 540.00
  252.00, 540.00
  276.00, 540.00
  300.00, 540.00
  324.00, 540.00
  348.00, 540.00
  Z
"/>
<g stroke="#B3B3B3" >
  <path fill="#1C570A" d="
    M
    372.00, 540.00
    L
    396.00, 508.00
    396.00, 508.00
    420.00, 476.00
    444.00, 444.00
    468.00, 412.00
    492.00, 380.00
    492.00, 348.00
    492.00, 316.00
    492.00, 284.00
    492.00, 252.00
    492.00, 220.00
    468.00, 188.00
    444.00, 156.00
    420.00, 124.00
    396.00, 92.00
    372.00, 92.00
    348.00, 92.00
    324.00, 92.00
    300.00, 92.00
    276.00, 92.00
    252.00, 124.00
    228.00, 156.00
    204.00, 188.00
    180.00, 220.00
    156.00, 252.00
    132.00, 284.00
    108.00, 316.00
    108.00, 348.00
    108.00, 380.00
    108.00, 412.00
    132.00, 444.00
    156.00, 476.00
    180.00, 508.00
    204.00, 540.00
    228.00, 540.00
    252.00, 540.00
    276.00, 540.00
    300.00, 540.00
    324.00, 540.00
    348.00, 540.00
    372.00, 540.00
    Z
  "/>
</g>
<g stroke="#B3B3B3" >
  <path fill="#356D1E" d="
    M
    372.00, 540.00
    L
    396.00, 508.00
    396.00, 508.00
    420.00, 476.00
    444.00, 444.00
    468.00, 412.00
    492.00, 380.00
    492.00, 348.00
    492.00, 316.00
    492.00, 284.00
    492.00, 252.00
    492.00, 220.00
    468.00, 188.00
    444.00, 156.00
    420.00, 124.00
    396.00, 92.00
    372.00, 92.00
    348.00, 92.00
    324.00, 92.00
    300.00, 92.00
    276.00, 92.00
    252.00, 124.00
    228.00, 156.00
    204.00, 188.00
    180.00, 220.00
    156.00, 252.00
    132.00, 284.00
    108.00, 316.00
    108.00, 348.00
    108.00, 380.00
    108.00, 412.00
    132.00, 444.00
    156.00, 476.00
    180.00, 508.00
    204.00, 540.00
    228.00, 540.00
    252.00, 540.00
    276.00, 540.00
    300.00, 540.00
    324.00, 540.00
    348.00, 540.00
    372.00, 540.00
    Z
  "/>
</g>
<g stroke="#B3B3B3" >
  <path fill="#4C802F" d="
    M
    372.00, 540.00
    L
    396.00, 508.00
    396.00, 508.00
    420.00, 476.00
    444.00, 444.00
    468.00, 412.00
    492.00, 380.00
    492.00, 348.00
    492.00, 316.00
    492.00, 284.00
    492.00, 252.00
    492.00, 220.00
    468.00, 188.00
    444.00, 156.00
    420.00, 124.00
    396.00, 92.00
    372.00, 92.00
    348.00, 92.00
    324.00, 92.00
    300.00, 92.00
    276.00, 92.00
    252.00, 124.00
    228.00, 156.00
    204.00, 188.00
    180.00, 220.00
    156.00, 252.00
    132.00, 284.00
    108.00, 316.00
    108.00, 348.00
    108.00, 380.00
    108.00, 412.00
    132.00, 444.00
    156.00, 476.00
    180.00, 508.00
    204.00, 540.00
    228.00, 540.00
    252.00, 540.00
    276.00, 540.00
    300.00, 540.00
    324.00, 540.00
    348.00, 540.00
    372.00, 540.00
    Z
  "/>
</g>
<g stroke="#B3B3B3" >
  <path fill="#639441" d="
    M
    372.00, 540.00
    L
    396.00, 508.00
    396.00, 508.00
    420.00, 476.00
    444.00, 444.00
    468.00, 412.00
    492.00, 380.00
    492.00, 348.00
    492.00, 316.00
    492.00, 284.00
    492.00, 252.00
    492.00, 220.00
    468.00, 188.00
    444.00, 156.00
    420.00, 124.00
    396.00, 92.00
    372.00, 92.00
    348.00, 92.00
    324.00, 92.00
    300.00, 92.00
    276.00, 92.00
    252.00, 124.00
    228.00, 156.00
    204.00, 188.00
    180.00, 220.00
    156.00, 252.00
    132.00, 284.00
    108.00, 316.00
    108.00, 348.00
    108.00, 380.00
    108.00, 412.00
    132.00, 444.00
    156.00, 476.00
    180.00, 508.00
    204.00, 540.00
    228.00, 540.00
    252.00, 540.00
    276.00, 540.00
    300.00, 540.00
    324.00, 540.00
    348.00, 540.00
    372.00, 540.00
    Z
  "/>
</g>
<g stroke="#B3B3B3" >
  <path fill="#7DA957" d="
    M
    372.00, 540.00
    L
    396.00, 508.00
    396.00, 508.00
    420.00, 476.00
    444.00, 444.00
    468.00, 412.00
    492.00, 380.00
    492.00, 348.00
    492.00, 316.00
    492.00, 284.00
    492.00, 252.00
    492.00, 220.00
    468.00, 188.00
    444.00, 156.00
    420.00, 124.00
    396.00, 92.00
    372.00, 92.00
    348.00, 92.00
    324.00, 92.00
    300.00, 92.00
    276.00, 92.00
    252.00, 124.00
    228.00, 156.00
    204.00, 188.00
    180.00, 220.00
    156.00, 252.00
    132.00, 284.00
    108.00, 316.00
    108.00, 348.00
    108.00, 380.00
    108.00, 412.00
    132.00, 444.00
    156.00, 476.00
    180.00, 508.00
    204.00, 540.00
    228.00, 540.00
    252.00, 540.00
    276.00, 540.00
    300.00, 540.00
    324.00, 540.00
    348.00, 540.00
    372.00, 540.00
    Z
  "/>
</g>
<g stroke="#B3B3B3" >
  <path fill="#9CC075" d="
    M
    372.00, 540.00
    L
    396.00, 508.00
    396.00, 508.00
    420.00, 476.00
    444.00, 444.00
    468.00, 412.00
    492.00, 380.00
    492.00, 348.00
    492.00, 316.00
    492.00, 284.00
    492.00, 252.00
    492.00, 220.00
    468.00, 188.00
    444.00, 156.00
    420.00, 124.00
    396.00, 92.00
    372.00, 92.00
    348.00, 92.00
    324.00, 92.00
    300.00, 92.00
    276.00, 92.00
    252.00, 124.00
    228.00, 156.00
    204.00, 188.00
    180.00, 220.00
    156.00, 252.00
    132.00, 284.00
    108.00, 316.00
    108.00, 348.00
    108.00, 380.00
    108.00, 412.00
    132.00, 444.00
    156.00, 476.00
    180.00, 508.00
    204.00, 540.00
    228.00, 540.00
    252.00, 540.00
    276.00, 540.00
    300.00, 540.00
    324.00, 540.00
    348.00, 540.00
    372.00, 540.00
    Z
  "/>
</g>
<g stroke="#B3B3B3" >
  <path fill="#BCD69B" d="
    M
    372.00, 540.00
    L
    396.00, 508.00
    396.00, 508.00
    420.00, 476.00
    444.00, 444.00
    468.00, 412.00
    492.00, 380.00
    492.00, 348.00
    492.00, 316.00
    492.00, 284.00
    492.00, 252.00
    492.00, 220.00
    468.00, 188.00
    444.00, 156.00
    420.00, 124.00
    396.00, 92.00
    372.00, 92.00
    348.00, 92.00
    324.00, 92.00
    300.00, 92.00
    276.00, 92.00
    252.00, 124.00
    228.00, 156.00
    204.00, 188.00
    180.00, 220.00
    156.00, 252.00
    132.00, 284.00
    108.00, 316.00
    108.00, 348.00
    108.00, 380.00
    108.00, 412.00
    132.00, 444.00
    156.00, 476.00
    180.00, 508.00
    204.00, 540.00
    228.00, 540.00
    252.00, 540.00
    276.00, 540.00
    300.00, 540.00
    324.00, 540.00
    348.00, 540.00
    372.00, 540.00
    Z
  "/>
</g>
<g stroke="#B3B3B3" >
  <path fill="#D7E7C1" d="
    M
    372.00, 540.00
    L
    396.00, 508.00
    396.00, 508.00
    420.00, 476.00
    444.00, 444.00
    468.00, 412.00
    492.00, 380.00
    492.00, 348.00
    492.00, 316.00
    492.00, 284.00
    492.00, 252.00
    492.00, 220.00
    468.00, 188.00
    444.00, 156.00
    420.00, 124.00
    399.94, 97.25
    396.00, 94.29
    392.62, 92.00
    348.00, 92.00
    324.00, 92.00
    300.00, 92.00
    276.00, 92.00
    252.00, 124.00
    228.00, 156.00
    204.00, 188.00
    180.00, 220.00
    156.00, 252.00
    132.00, 284.00
    108.00, 316.00
    108.00, 348.00
    108.00, 380.00
    108.00, 412.00
    132.00, 444.00
    156.00, 476.00
    180.00, 508.00
    204.00, 540.00
    228.00, 540.00
    252.00, 540.00
    276.00, 540.00
    300.00, 540.00
    324.00, 540.00
    348.00, 540.00
    372.00, 540.00
    Z
  "/>
</g>
<g stroke="#B3B3B3" >
  <path fill="#EAF1DE" d="
    M
    372.00, 540.00
    L
    396.00, 508.00
    396.00, 508.00
    420.00, 476.00
    444.00, 444.00
    468.00, 412.00
    492.00, 380.00
    492.00, 348.00
    492.00, 316.00
    492.00, 284.00
    492.00, 252.00
    492.00, 220.00
    468.00, 188.00
    450.72, 164.97
    444.00, 157.54
    442.48, 156.00
    420.00, 135.57
    406.02, 124.00
    396.00, 116.47
    372.00, 100.18
    358.49, 92.00
    324.00, 92.00
    300.00, 92.00
    276.00, 92.00
    252.00, 124.00
    228.00, 156.00
    204.00, 188.00
    180.00, 220.00
    156.00, 252.00
    132.00, 284.00
    108.00, 316.00
    108.00, 348.00
    108.00, 380.00
    108.00, 412.00
    132.00, 444.00
    156.00, 476.00
    180.00, 508.00
    204.00, 540.00
    228.00, 540.00
    252.00, 540.00
    276.00, 540.00
    300.00, 540.00
    324.00, 540.00
    348.00, 540.00
    372.00, 540.00
    Z
  "/>
</g>
<g stroke="#B3B3B3" >
  <path fill="#F4F3ED" d="
    M
    372.00, 540.00
    L
    396.00, 508.00
    396.00, 508.00
    420.00, 476.00
    444.00, 444.00
    468.00, 412.00
    492.00, 380.00
    492.00, 348.00
    492.00, 316.00
    492.00, 284.00
    492.00, 252.00
    492.00, 250.88
    472.19, 220.00
    468.00, 214.35
    446.92, 188.00
    444.00, 184.78
    420.00, 160.42
    415.22, 156.00
    396.00, 140.04
    374.57, 124.00
    372.00, 122.25
    348.00, 107.65
    324.00, 94.82
    317.91, 92.00
    276.00, 92.00
    252.00, 124.00
    228.00, 156.00
    204.00, 188.00
    180.00, 220.00
    156.00, 252.00
    132.00, 284.00
    108.00, 316.00
    108.00, 348.00
    108.00, 380.00
    108.00, 412.00
    132.00, 444.00
    156.00, 476.00
    180.00, 508.00
    204.00, 540.00
    228.00, 540.00
    252.00, 540.00
    276.00, 540.00
    300.00, 540.00
    324.00, 540.00
    348.00, 540.00
    372.00, 540.00
    Z
  "/>
</g>
<g stroke="#B3B3B3" >
  <path fill="#F6ECF1" d="
    M
    372.00, 540.00
    L
    396.00, 508.00
    396.00, 508.00
    420.00, 476.00
    444.00, 444.00
    468.00, 412.00
    492.00, 380.00
    492.00, 348.00
    492.00, 316.00
    492.00, 294.39
    487.39, 284.00
    470.00, 252.00
    468.00, 248.89
    447.98, 220.00
    444.00, 215.03
    420.49, 188.00
    420.00, 187.51
    396.00, 165.25
    384.95, 156.00
    372.00, 146.27
    348.00, 130.17
    337.55, 124.00
    324.00, 116.72
    300.00, 105.57
    276.00, 96.16
    273.49, 95.35
    228.00, 156.00
    204.00, 188.00
    180.00, 220.00
    156.00, 252.00
    132.00, 284.00
    108.00, 316.00
    108.00, 348.00
    108.00, 380.00
    108.00, 412.00
    132.00, 444.00
    156.00, 476.00
    180.00, 508.00
    204.00, 540.00
    228.00, 540.00
    252.00, 540.00
    276.00, 540.00
    300.00, 540.00
    324.00, 540.00
    348.00, 540.00
    372.00, 540.00
    Z
  "/>
</g>
<g stroke="#B3B3B3" >
  <path fill="#F3DCED" d="
    M
    372.00, 540.00
    L
    396.00, 508.00
    396.00, 508.00
    420.00, 476.00
    444.00, 444.00
    468.00, 412.00
    492.00, 380.00
    492.00, 355.79
    490.08, 348.00
    479.03, 316.00
    468.00, 291.21
    464.54, 284.00
    445.77, 252.00
    444.00, 249.45
    421.80, 220.00
    420.00, 217.93
    396.00, 192.72
    391.03, 188.00
    372.00, 172.03
    350.59, 156.00
    348.00, 154.26
    324.00, 140.02
    300.00, 127.72
    291.40, 124.00
    276.00, 117.93
    260.35, 112.87
    228.00, 156.00
    204.00, 188.00
    180.00, 220.00
    156.00, 252.00
    132.00, 284.00
    108.00, 316.00
    108.00, 348.00
    108.00, 380.00
    108.00, 412.00
    132.00, 444.00
    156.00, 476.00
    180.00, 508.00
    204.00, 540.00
    228.00, 540.00
    252.00, 540.00
    276.00, 540.00
    300.00, 540.00
    324.00, 540.00
    348.00, 540.00
    372.00, 540.00
    Z
  "/>
</g>
<g stroke="#B3B3B3" >
  <path fill="#ECC5E2" d="
    M
    372.00, 540.00
    L
    396.00, 508.00
    396.00, 508.00
    420.00, 476.00
    444.00, 444.00
    468.00, 412.00
    478.27, 398.31
    475.55, 380.00
    468.00, 349.50
    467.60, 348.00
    455.67, 316.00
    444.00, 291.71
    439.98, 284.00
    420.00, 252.68
    419.52, 252.00
    396.00, 223.49
    392.81, 220.00
    372.00, 200.21
    357.62, 188.00
    348.00, 180.77
    324.00, 164.89
    308.47, 156.00
    300.00, 151.64
    276.00, 141.21
    252.00, 132.69
    246.61, 131.19
    204.00, 188.00
    180.00, 220.00
    156.00, 252.00
    132.00, 284.00
    108.00, 316.00
    108.00, 348.00
    108.00, 380.00
    108.00, 412.00
    132.00, 444.00
    156.00, 476.00
    180.00, 508.00
    204.00, 540.00
    228.00, 540.00
    252.00, 540.00
    276.00, 540.00
    300.00, 540.00
    324.00, 540.00
    348.00, 540.00
    372.00, 540.00
    Z
  "/>
</g>
<g stroke="#B3B3B3" >
  <path fill="#E3A9D4" d="
    M
    372.00, 540.00
    L
    396.00, 508.00
    396.00, 508.00
    420.00, 476.00
    444.00, 444.00
    457.90, 425.47
    457.18, 412.00
    452.06, 380.00
    444.00, 349.85
    443.46, 348.00
    430.49, 316.00
    420.00, 295.90
    413.20, 284.00
    396.00, 259.37
    390.31, 252.00
    372.00, 231.92
    359.83, 220.00
    348.00, 209.93
    324.00, 191.94
    317.93, 188.00
    300.00, 177.70
    276.00, 166.05
    252.00, 156.54
    250.24, 156.00
    231.83, 150.89
    204.00, 188.00
    180.00, 220.00
    156.00, 252.00
    132.00, 284.00
    108.00, 316.00
    108.00, 348.00
    108.00, 380.00
    108.00, 412.00
    132.00, 444.00
    156.00, 476.00
    180.00, 508.00
    204.00, 540.00
    228.00, 540.00
    252.00, 540.00
    276.00, 540.00
    300.00, 540.00
    324.00, 540.00
    348.00, 540.00
    372.00, 540.00
    Z
  "/>
</g>
<g stroke="#B3B3B3" >
  <path fill="#D78CC4" d="
    M
    372.00, 540.00
    L
    396.00, 508.00
    396.00, 508.00
    420.00, 476.00
    433.32, 458.24
    434.15, 444.00
    432.29, 412.00
    426.72, 380.00
    420.00, 356.84
    417.20, 348.00
    402.98, 316.00
    396.00, 303.79
    383.50, 284.00
    372.00, 269.10
    357.25, 252.00
    348.00, 242.92
    324.00, 222.17
    321.11, 220.00
    300.00, 206.26
    276.00, 193.07
    264.71, 188.00
    252.00, 182.94
    228.00, 175.52
    215.45, 172.74
    180.00, 220.00
    156.00, 252.00
    132.00, 284.00
    108.00, 316.00
    108.00, 348.00
    108.00, 380.00
    108.00, 412.00
    132.00, 444.00
    156.00, 476.00
    180.00, 508.00
    204.00, 540.00
    228.00, 540.00
    252.00, 540.00
    276.00, 540.00
    300.00, 540.00
    324.00, 540.00
    348.00, 540.00
    372.00, 540.00
    Z
  "/>
</g>
<g stroke="#B3B3B3" >
  <path fill="#C970B2" d="
    M
    372.00, 540.00
    L
    396.00, 508.00
    396.00, 508.00
    400.05, 502.61
    405.12, 476.00
    407.16, 444.00
    405.12, 412.00
    399.02, 380.00
    396.00, 370.50
    388.12, 348.00
    372.38, 316.00
    372.00, 315.39
    349.84, 284.00
    348.00, 281.86
    324.00, 257.31
    318.00, 252.00
    300.00, 238.48
    276.00, 223.26
    269.70, 220.00
    252.00, 212.02
    228.00, 203.61
    204.00, 197.61
    197.52, 196.64
    156.00, 252.00
    132.00, 284.00
    108.00, 316.00
    108.00, 348.00
    108.00, 380.00
    108.00, 412.00
    132.00, 444.00
    156.00, 476.00
    180.00, 508.00
    204.00, 540.00
    228.00, 540.00
    252.00, 540.00
    276.00, 540.00
    300.00, 540.00
    324.00, 540.00
    348.00, 540.00
    372.00, 540.00
    Z
  "/>
</g>
<g stroke="#B3B3B3" >
  <path fill="#B958A0" d="
    M
    156.00, 252.00
    L
    132.00, 284.00
    132.00, 284.00
    108.00, 316.00
    108.00, 348.00
    108.00, 380.00
    108.00, 412.00
    132.00, 444.00
    156.00, 476.00
    180.00, 508.00
    204.00, 540.00
    228.00, 540.00
    252.00, 540.00
    276.00, 540.00
    300.00, 540.00
    324.00, 540.00
    348.00, 540.00
    355.22, 540.00
    367.76, 508.00
    372.00, 489.96
    374.94, 476.00
    377.19, 444.00
    374.94, 412.00
    372.00, 398.04
    367.76, 380.00
    355.22, 348.00
    348.00, 334.86
    336.27, 316.00
    324.00, 300.66
    308.61, 284.00
    300.00, 276.36
    276.00, 258.36
    265.62, 252.00
    252.00, 244.92
    228.00, 235.22
    204.00, 228.30
    180.00, 224.15
    177.01, 223.98
    Z
  "/>
</g>
<g stroke="#B3B3B3" >
  <path fill="#A5428C" d="
    M
    132.00, 284.00
    L
    108.00, 316.00
    108.00, 316.00
    108.00, 348.00
    108.00, 380.00
    108.00, 412.00
    132.00, 444.00
    156.00, 476.00
    180.00, 508.00
    204.00, 540.00
    228.00, 540.00
    252.00, 540.00
    276.00, 540.00
    300.00, 540.00
    315.90, 540.00
    324.00, 524.20
    331.20, 508.00
    339.74, 476.00
    342.58, 444.00
    339.74, 412.00
    331.20, 380.00
    324.00, 363.80
    315.90, 348.00
    300.00, 325.86
    291.64, 316.00
    276.00, 301.66
    252.44, 284.00
    252.00, 283.73
    228.00, 272.26
    204.00, 264.08
    180.00, 259.17
    156.00, 257.54
    151.62, 257.84
    Z
  "/>
</g>
<g stroke="#B3B3B3" >
  <path fill="#8E2C74" d="
    M
    108.00, 316.00
    L
    108.00, 348.00
    108.00, 348.00
    108.00, 380.00
    108.00, 412.00
    132.00, 444.00
    156.00, 476.00
    180.00, 508.00
    204.00, 540.00
    228.00, 540.00
    252.00, 540.00
    263.36, 540.00
    276.00, 522.93
    285.05, 508.00
    296.69, 476.00
    300.00, 448.63
    300.48, 444.00
    300.00, 439.37
    296.69, 412.00
    285.05, 380.00
    276.00, 365.07
    263.36, 348.00
    252.00, 337.04
    228.00, 319.05
    222.30, 316.00
    204.00, 308.36
    180.00, 302.36
    156.00, 300.36
    132.00, 302.36
    115.05, 306.60
    Z
  "/>
</g>
<g stroke="#B3B3B3" >
  <path fill="#73135A" d="
    M
    108.00, 380.00
    L
    108.00, 412.00
    108.00, 412.00
    132.00, 444.00
    156.00, 476.00
    180.00, 508.00
    187.96, 518.61
    204.00, 511.38
    208.51, 508.00
    228.00, 483.64
    232.36, 476.00
    238.46, 444.00
    232.36, 412.00
    228.00, 404.36
    208.51, 380.00
    204.00, 376.62
    180.00, 365.81
    156.00, 362.21
    132.00, 365.81
    108.00, 376.62
    Z
  "/>
</g>
<text x="300.00" y="559.20" font-size="20.00" fill="#000000" text-anchor="middle">
  vmin = +8.824969E-01 vmax = +1.000000E+00
</text>
<text x="300.00" y="578.40" font-size="20.00" fill="#000000" text-anchor="middle">
  example03_contour_diagonal_border.svg
</text>

</svg>
